<svg width="299" height="338" viewBox="0 0 299 338" fill="none" xmlns="http://www.w3.org/2000/svg">
<path d="M25 197C25 191.477 29.4772 187 35 187H81C86.5229 187 91 191.477 91 197V337H25V197Z" fill="#003366"/>
<path d="M117 122C117 116.477 121.477 112 127 112H173C178.523 112 183 116.477 183 122V337H117V122Z" fill="#003366"/>
<path d="M209 10C209 4.47716 213.477 0 219 0H265C270.523 0 275 4.47715 275 10V337.5H209V10Z" fill="#66CCCC"/>
<rect x="6" y="268" width="287" height="38" rx="19" fill="#666666" stroke="white" stroke-width="12"/>
</svg>
