<svg width="301" height="338" viewBox="0 0 301 338" fill="none" xmlns="http://www.w3.org/2000/svg">
<path d="M26 197C26 191.477 30.4772 187 36 187H82C87.5229 187 92 191.477 92 197V337H26V197Z" fill="#FAFAFA"/>
<path d="M118 122C118 116.477 122.477 112 128 112H174C179.523 112 184 116.477 184 122V337H118V122Z" fill="#FAFAFA"/>
<path d="M210 10C210 4.47716 214.477 0 220 0H266C271.523 0 276 4.47715 276 10V337.5H210V10Z" fill="#FAFAFA"/>
<rect x="6.5" y="267.5" width="288" height="39" rx="19.5" fill="#FAFAFA" stroke="#1A1A1A" stroke-width="13"/>
</svg>
